<svg width="204" height="65" viewBox="0 0 204 65" fill="none" xmlns="http://www.w3.org/2000/svg">
<path d="M141.06 51.8696H141.764C141.74 52.0696 141.548 52.6616 141.02 53.0136C140.828 53.1416 140.556 53.3016 139.884 53.3016C138.708 53.3016 138.012 52.4136 138.012 51.2056C138.012 49.9096 138.636 48.8776 140.02 48.8776C141.228 48.8776 141.82 49.8376 141.82 51.3176H138.764C138.764 52.1896 139.172 52.6936 139.98 52.6936C140.644 52.6936 141.036 52.1816 141.06 51.8696ZM138.764 50.7576H141.092C141.052 50.1096 140.78 49.5096 139.924 49.5096C139.276 49.5096 138.764 50.1096 138.764 50.7576ZM146.186 50.3336V53.1816H145.482V50.6056C145.482 49.8776 145.274 49.5096 144.586 49.5096C144.186 49.5096 143.482 49.7656 143.482 50.9016V53.1816H142.778V48.9976H143.442V49.5896H143.458C143.61 49.3656 144.002 48.8776 144.722 48.8776C145.37 48.8776 146.186 49.1416 146.186 50.3336ZM147.871 51.0776C147.871 51.9976 148.231 52.6936 148.999 52.6936C149.447 52.6936 150.143 52.3976 150.143 51.2856C150.143 50.6056 150.031 49.5096 149.015 49.5096C147.927 49.5096 147.871 50.5416 147.871 51.0776ZM150.815 48.9976V52.8376C150.815 53.4376 150.807 54.9416 148.871 54.9416C148.375 54.9416 147.407 54.8056 147.271 53.6936H147.975C148.103 54.3576 148.751 54.3576 148.919 54.3576C150.135 54.3576 150.111 53.3816 150.111 52.8856V52.7096H150.095V52.7416C149.911 53.0376 149.543 53.3016 148.983 53.3016C147.559 53.3016 147.143 51.9656 147.143 50.9656C147.143 49.7896 147.775 48.8776 148.887 48.8776C149.647 48.8776 149.967 49.3496 150.135 49.5896H150.151V48.9976H150.815ZM152.628 48.9976V53.1816H151.924V48.9976H152.628ZM152.628 48.2376H151.924V47.4376H152.628V48.2376ZM157.21 50.3336V53.1816H156.506V50.6056C156.506 49.8776 156.298 49.5096 155.61 49.5096C155.21 49.5096 154.506 49.7656 154.506 50.9016V53.1816H153.802V48.9976H154.466V49.5896H154.482C154.634 49.3656 155.026 48.8776 155.746 48.8776C156.394 48.8776 157.21 49.1416 157.21 50.3336ZM161.215 51.8696H161.919C161.895 52.0696 161.703 52.6616 161.175 53.0136C160.983 53.1416 160.711 53.3016 160.039 53.3016C158.863 53.3016 158.167 52.4136 158.167 51.2056C158.167 49.9096 158.791 48.8776 160.175 48.8776C161.383 48.8776 161.975 49.8376 161.975 51.3176H158.919C158.919 52.1896 159.327 52.6936 160.135 52.6936C160.799 52.6936 161.191 52.1816 161.215 51.8696ZM158.919 50.7576H161.247C161.207 50.1096 160.935 49.5096 160.079 49.5096C159.431 49.5096 158.919 50.1096 158.919 50.7576ZM165.78 51.8696H166.484C166.46 52.0696 166.268 52.6616 165.74 53.0136C165.548 53.1416 165.276 53.3016 164.604 53.3016C163.428 53.3016 162.732 52.4136 162.732 51.2056C162.732 49.9096 163.356 48.8776 164.74 48.8776C165.948 48.8776 166.54 49.8376 166.54 51.3176H163.484C163.484 52.1896 163.892 52.6936 164.7 52.6936C165.364 52.6936 165.756 52.1816 165.78 51.8696ZM163.484 50.7576H165.812C165.772 50.1096 165.5 49.5096 164.644 49.5096C163.996 49.5096 163.484 50.1096 163.484 50.7576ZM168.298 50.7496V53.1816H167.594V48.9976H168.258V49.6936H168.274C168.554 49.2056 168.922 48.8776 169.45 48.8776C169.538 48.8776 169.578 48.8856 169.634 48.9016V49.6296H169.37C168.714 49.6296 168.298 50.1416 168.298 50.7496ZM171.119 48.9976V53.1816H170.415V48.9976H171.119ZM171.119 48.2376H170.415V47.4376H171.119V48.2376ZM175.7 50.3336V53.1816H174.996V50.6056C174.996 49.8776 174.788 49.5096 174.1 49.5096C173.7 49.5096 172.996 49.7656 172.996 50.9016V53.1816H172.292V48.9976H172.956V49.5896H172.972C173.124 49.3656 173.516 48.8776 174.236 48.8776C174.884 48.8776 175.7 49.1416 175.7 50.3336ZM177.386 51.0776C177.386 51.9976 177.746 52.6936 178.514 52.6936C178.962 52.6936 179.658 52.3976 179.658 51.2856C179.658 50.6056 179.546 49.5096 178.53 49.5096C177.442 49.5096 177.386 50.5416 177.386 51.0776ZM180.33 48.9976V52.8376C180.33 53.4376 180.322 54.9416 178.386 54.9416C177.89 54.9416 176.922 54.8056 176.786 53.6936H177.49C177.618 54.3576 178.266 54.3576 178.434 54.3576C179.65 54.3576 179.626 53.3816 179.626 52.8856V52.7096H179.61V52.7416C179.426 53.0376 179.058 53.3016 178.498 53.3016C177.074 53.3016 176.658 51.9656 176.658 50.9656C176.658 49.7896 177.29 48.8776 178.402 48.8776C179.162 48.8776 179.482 49.3496 179.65 49.5896H179.666V48.9976H180.33ZM184.297 51.0776C184.297 51.9976 184.657 52.6936 185.425 52.6936C185.873 52.6936 186.569 52.3976 186.569 51.2856C186.569 50.6056 186.457 49.5096 185.441 49.5096C184.353 49.5096 184.297 50.5416 184.297 51.0776ZM187.241 48.9976V52.8376C187.241 53.4376 187.233 54.9416 185.297 54.9416C184.801 54.9416 183.833 54.8056 183.697 53.6936H184.401C184.529 54.3576 185.177 54.3576 185.345 54.3576C186.561 54.3576 186.537 53.3816 186.537 52.8856V52.7096H186.521V52.7416C186.337 53.0376 185.969 53.3016 185.409 53.3016C183.985 53.3016 183.569 51.9656 183.569 50.9656C183.569 49.7896 184.201 48.8776 185.313 48.8776C186.073 48.8776 186.393 49.3496 186.561 49.5896H186.577V48.9976H187.241ZM189.057 50.7496V53.1816H188.353V48.9976H189.017V49.6936H189.033C189.313 49.2056 189.681 48.8776 190.209 48.8776C190.297 48.8776 190.337 48.8856 190.393 48.9016V49.6296H190.129C189.473 49.6296 189.057 50.1416 189.057 50.7496ZM190.644 51.0856C190.644 50.0056 191.252 48.8776 192.588 48.8776C193.924 48.8776 194.532 50.0056 194.532 51.0856C194.532 52.1656 193.924 53.2936 192.588 53.2936C191.252 53.2936 190.644 52.1656 190.644 51.0856ZM191.372 51.0856C191.372 51.6456 191.58 52.6856 192.588 52.6856C193.596 52.6856 193.804 51.6456 193.804 51.0856C193.804 50.5256 193.596 49.4856 192.588 49.4856C191.58 49.4856 191.372 50.5256 191.372 51.0856ZM198.842 53.1816H198.178V52.5736L198.162 52.5576C197.866 53.0456 197.506 53.3016 196.834 53.3016C196.218 53.3016 195.474 53.0056 195.474 52.0056V48.9976H196.178V51.7736C196.178 52.4616 196.53 52.6936 196.986 52.6936C197.874 52.6936 198.138 51.9096 198.138 51.3016V48.9976H198.842V53.1816ZM200.631 51.2856C200.631 52.3976 201.327 52.6936 201.775 52.6936C202.543 52.6936 202.903 51.9976 202.903 51.0776C202.903 50.5416 202.847 49.5096 201.759 49.5096C200.743 49.5096 200.631 50.6056 200.631 51.2856ZM199.959 54.8376V48.9976H200.623V49.5896H200.639C200.807 49.3496 201.127 48.8776 201.887 48.8776C202.999 48.8776 203.631 49.7896 203.631 50.9656C203.631 51.9656 203.215 53.3016 201.791 53.3016C201.231 53.3016 200.863 53.0376 200.679 52.7416H200.663V54.8376H199.959Z" fill="white"/>
<path d="M202.977 29.3443C202.552 28.3623 201.966 27.5018 201.214 26.7633C200.463 26.0238 199.597 25.4418 198.615 25.0178C197.633 24.5943 196.572 24.3483 195.435 24.3483C194.101 24.3483 192.863 24.6788 191.725 25.2723C190.585 25.8663 189.658 26.5888 188.908 27.6068C188.156 26.5888 187.197 25.8668 186.071 25.2723C184.945 24.6788 183.702 24.3483 182.345 24.3483C181.23 24.3483 180.176 24.5943 179.182 25.0178C178.546 25.2893 177.991 25.6323 177.46 26.0323V24.3483H174.201V40.6593H177.46V32.5208C177.46 31.8448 177.565 31.2098 177.819 30.6173C178.073 30.0233 178.424 29.5028 178.873 29.0538C179.321 28.6058 179.842 28.2538 180.436 27.9998C181.03 27.7448 181.667 27.6178 182.345 27.6178C183.022 27.6178 183.665 27.7448 184.272 27.9998C184.877 28.2543 185.405 28.6058 185.854 29.0538C186.302 29.5023 186.655 30.0233 186.908 30.6173C187.163 31.2113 187.247 31.8478 187.247 32.5253L187.25 40.6593H190.528V32.5253C190.526 31.8478 190.653 31.2108 190.908 30.6173C191.163 30.0238 191.514 29.5028 191.962 29.0538C192.41 28.6058 192.931 28.2538 193.526 27.9998C194.119 27.7448 194.755 27.6178 195.435 27.6178C196.112 27.6178 196.755 27.7448 197.361 27.9998C197.966 28.2543 198.494 28.6058 198.943 29.0538C199.391 29.5023 199.743 30.0233 199.996 30.6173C200.251 31.2113 200.328 31.8478 200.328 32.5253V40.6593H203.587V32.5253C203.587 31.3868 203.401 30.3258 202.977 29.3443Z" fill="white"/>
<path d="M172.57 24.3483V32.5253C172.57 33.6408 172.357 34.6953 171.934 35.6888C171.509 36.6828 170.921 37.5558 170.17 38.3063C169.419 39.0578 168.553 39.6458 167.571 40.0693C166.589 40.4943 165.529 40.6588 164.39 40.6588C163.275 40.6588 162.221 40.4943 161.227 40.0693C160.233 39.6453 159.366 39.0578 158.628 38.3063C157.888 37.5558 157.306 36.6828 156.883 35.6888C156.458 34.6953 156.246 33.6408 156.246 32.5253V24.3483H159.524V32.5253C159.524 33.2048 159.61 33.8478 159.864 34.4523C160.12 35.0583 160.47 35.5858 160.918 36.0343C161.367 36.4823 161.888 36.8338 162.482 37.0878C163.076 37.3418 163.712 37.3998 164.391 37.3998C165.068 37.3998 165.711 37.3423 166.318 37.0878C166.923 36.8333 167.451 36.4823 167.9 36.0343C168.347 35.5858 168.699 35.0583 168.953 34.4523C169.207 33.8473 169.299 33.2048 169.299 32.5253V24.3483H172.57Z" fill="white"/>
<path d="M74.4912 24.3483V27.6068H76.1177V40.6588H79.4002V24.3483H74.4912Z" fill="white"/>
<path d="M77.0435 23.1218C78.3521 23.1218 79.413 22.0609 79.413 20.7523C79.413 19.4437 78.3521 18.3828 77.0435 18.3828C75.7348 18.3828 74.674 19.4437 74.674 20.7523C74.674 22.0609 75.7348 23.1218 77.0435 23.1218Z" fill="white"/>
<path d="M149.865 24.3483V27.6068H151.492V40.6588H154.774V24.3483H149.865Z" fill="white"/>
<path d="M152.418 23.1218C153.727 23.1218 154.787 22.0609 154.787 20.7523C154.787 19.4437 153.727 18.3828 152.418 18.3828C151.109 18.3828 150.048 19.4437 150.048 20.7523C150.048 22.0609 151.109 23.1218 152.418 23.1218Z" fill="white"/>
<path d="M149.064 29.3443C148.64 28.3623 148.053 27.5018 147.302 26.7633C146.55 26.0238 145.684 25.4418 144.702 25.0178C143.721 24.5943 142.62 24.3483 141.482 24.3483C140.367 24.3483 139.352 24.5943 138.358 25.0178C137.722 25.2893 137.145 25.6323 136.613 26.0328V24.3803H133.32V40.6588H136.596L136.597 32.5208C136.597 31.8443 136.741 31.2093 136.995 30.6168C137.25 30.0228 137.6 29.5023 138.049 29.0533C138.497 28.6053 139.019 28.2533 139.613 27.9993C140.207 27.7443 140.803 27.6068 141.482 27.6068C142.159 27.6068 142.842 27.7443 143.448 27.9993C144.053 28.2538 144.581 28.6053 145.03 29.0533C145.478 29.5018 145.83 30.0223 146.084 30.6168C146.338 31.2108 146.424 31.8473 146.424 32.5248V40.6588H149.702V32.5248C149.701 31.3863 149.488 30.3258 149.064 29.3443Z" fill="white"/>
<path d="M96.7757 29.3443C96.3502 28.3623 95.7637 27.5018 95.0127 26.7633C94.2607 26.0238 93.3947 25.4418 92.4132 25.0178C91.4317 24.5943 90.3312 24.3483 89.1927 24.3483C88.0777 24.3483 87.0627 24.5943 86.0692 25.0178C85.4332 25.2893 84.8547 25.6323 84.3247 26.0328V24.3803H81.0302V40.6588H84.3072V32.5208C84.3082 31.8443 84.4517 31.2093 84.7057 30.6168C84.9607 30.0228 85.3112 29.5023 85.7597 29.0533C86.2082 28.6053 86.7287 28.2533 87.3232 27.9993C87.9167 27.7443 88.5142 27.6068 89.1927 27.6068C89.8702 27.6068 90.5527 27.7443 91.1597 27.9993C91.7642 28.2538 92.2917 28.6053 92.7402 29.0533C93.1882 29.5018 93.5407 30.0223 93.7947 30.6168C94.0492 31.2108 94.1352 31.8473 94.1352 32.5248V40.6588H97.4127V32.5248C97.4117 31.3863 97.1992 30.3258 96.7757 29.3443Z" fill="white"/>
<path d="M131.702 32.4858C131.702 31.3488 131.489 30.2893 131.067 29.3088C130.642 28.3273 130.061 27.4678 129.322 26.7288C128.583 25.9898 127.724 25.4083 126.742 24.9843C125.761 24.5603 124.701 24.3483 123.562 24.3483C122.447 24.3483 121.394 24.5608 120.401 24.9843C119.407 25.4088 118.534 25.9903 117.784 26.7288C117.033 27.4683 116.445 28.3273 116.021 29.3088C115.597 30.2903 115.35 31.3358 115.35 32.4738C115.35 33.5883 115.597 34.6578 116.021 35.6508C116.446 36.6443 117.033 37.5163 117.784 38.2673C118.534 39.0183 119.407 39.6063 120.401 40.0298C121.394 40.4538 122.448 40.6528 123.562 40.6528L128.429 40.6633V37.3998H123.567C121.421 37.3998 119.61 36.0563 118.944 34.1378L131.703 34.1458V32.4893L131.702 32.4858ZM118.893 30.8763C119.559 28.9598 121.383 27.5843 123.526 27.5843C125.673 27.5843 127.494 28.9558 128.159 30.8763H118.893Z" fill="white"/>
<path d="M114.522 24.3813H111.321V26.0583C110.784 25.6468 110.199 25.2953 109.558 25.0178C108.576 24.5933 107.516 24.3813 106.377 24.3813C105.262 24.3813 104.207 24.5938 103.214 25.0178C102.22 25.4423 101.347 26.0243 100.596 26.7628C99.8443 27.5023 99.2563 28.3618 98.8333 29.3438C98.4088 30.3253 98.1973 31.3863 98.1973 32.5253C98.1973 33.6398 98.4093 34.6943 98.8333 35.6883C99.2568 36.6823 99.8443 37.5548 100.596 38.3058C101.347 39.0573 102.22 39.6453 103.214 40.0683C104.207 40.4933 105.262 40.6588 106.377 40.6588H111.245C110.905 41.6278 110.103 42.4683 109.267 43.0863C108.431 43.7043 107.467 43.9353 106.377 43.9353H104.733V47.1934H106.377C107.516 47.1934 108.576 47.0369 109.558 46.6129C110.54 46.1884 111.4 45.6009 112.139 44.8498C112.879 44.0983 113.46 43.2323 113.884 42.2508C114.308 41.2688 114.52 40.2088 114.52 39.0693L114.522 24.3813ZM111.244 37.4003H106.377C105.697 37.4003 105.055 37.3423 104.45 37.0878C103.844 36.8333 103.316 36.4823 102.868 36.0333C102.419 35.5853 102.068 35.0583 101.815 34.4528C101.56 33.8468 101.432 33.2043 101.432 32.5258C101.432 31.8478 101.56 31.2108 101.815 30.6168C102.069 30.0233 102.419 29.5023 102.868 29.0533C103.316 28.6053 103.844 28.2538 104.45 27.9998C105.055 27.7453 105.697 27.6173 106.377 27.6173C107.055 27.6173 107.697 27.7453 108.304 27.9998C108.909 28.2543 109.436 28.6058 109.885 29.0533C110.333 29.5023 110.685 30.0233 110.939 30.6168C111.193 31.2108 111.244 31.8478 111.244 32.5258V37.4003Z" fill="white"/>
<path fill-rule="evenodd" clip-rule="evenodd" d="M26.1938 6.68338L31.9064 0.970703L43.22 12.2843L31.9064 23.5979L26.3393 18.0308C25.5202 18.4402 24.5994 18.6765 23.625 18.6915C23.6104 19.6386 23.3868 20.535 22.9983 21.3366L30.0535 28.3919H33.9967L46.6656 15.7231L49.494 18.5516L35.6535 32.3919H28.3967L20.2032 24.1984C19.3961 24.6134 18.4878 24.8594 17.525 24.8893C17.5123 25.7306 17.3347 26.532 17.0231 27.2625L27.0532 37.2926H37.0923L52.6143 21.665L63.7475 32.7983L32.0247 64.521L0.196289 32.6926L5.48903 27.3999C5.12729 26.6053 4.92578 25.7224 4.92578 24.7924C4.92578 21.3796 7.6393 18.6007 11.0265 18.4954C11.0778 15.0937 13.8253 12.3456 17.2267 12.2931C17.2797 8.85946 20.0797 6.09229 23.5259 6.09229C24.4795 6.09229 25.3836 6.30415 26.1938 6.68338ZM8.21696 30.3288L5.85315 32.6926L32.0247 58.8642L58.0906 32.7983L52.6239 27.3315L38.7571 41.2926H25.3963L14.3615 30.2578C13.4381 30.7887 12.3674 31.0924 11.2258 31.0924C10.1361 31.0924 9.11101 30.8157 8.21696 30.3288ZM29.1666 15.2013L31.9064 17.9411L37.5632 12.2843L31.9064 6.6275L29.0932 9.44075C29.561 10.3212 29.826 11.3258 29.826 12.3923C29.826 13.4016 29.5886 14.3556 29.1666 15.2013ZM21.226 12.3923C21.226 11.122 22.2557 10.0923 23.5259 10.0923C24.7962 10.0923 25.826 11.122 25.826 12.3923C25.826 13.6625 24.7962 14.6923 23.5259 14.6923C22.2557 14.6923 21.226 13.6625 21.226 12.3923ZM15.0258 18.5924C15.0258 17.3221 16.0555 16.2924 17.3258 16.2924C18.596 16.2924 19.6258 17.3221 19.6258 18.5924C19.6258 19.8626 18.596 20.8924 17.3258 20.8924C16.0555 20.8924 15.0258 19.8626 15.0258 18.5924ZM11.2258 22.4924C9.95552 22.4924 8.92578 23.5221 8.92578 24.7924C8.92578 26.0626 9.95552 27.0924 11.2258 27.0924C12.496 27.0924 13.5258 26.0626 13.5258 24.7924C13.5258 23.5221 12.496 22.4924 11.2258 22.4924Z" fill="#FFD800"/>
</svg>
