<svg width="700" height="190" viewBox="0 0 700 190" fill="none" xmlns="http://www.w3.org/2000/svg">
<path d="M0 0H29.9023V21.0359H0V0ZM0.598819 28.4149H29.3035V109.719H0.598819V28.4149Z" fill="white"/>
<path d="M45.0852 28.4147H73.7899V39.8309C75.1177 38.0853 76.5565 36.427 78.0975 34.8665C79.7029 33.2501 81.4998 31.8359 83.4482 30.6554C85.4958 29.4173 87.6889 28.4375 89.9773 27.7386C92.5239 26.9573 95.1756 26.5729 97.8392 26.5989C106.609 26.5989 113.434 29.2582 118.315 34.5767C123.196 39.8952 125.642 47.2099 125.655 56.5205V109.719H96.9506V65.6767C97.217 61.9996 96.101 58.3555 93.8213 55.4581C92.7986 54.3202 91.5384 53.4207 90.1298 52.8232C88.7213 52.2257 87.1987 51.9449 85.6697 52.0004C84.084 51.9485 82.505 52.2293 81.0344 52.8249C79.5639 53.4204 78.2344 54.3174 77.1317 55.4581C74.7231 58.2956 73.5233 61.9644 73.7899 65.6767V109.719H45.0852V28.4147Z" fill="white"/>
<path d="M180.36 134.06C173.003 134.125 165.663 133.321 158.494 131.664C151.953 130.111 145.618 127.789 139.621 124.749L148.739 105.819C153.038 108.158 157.57 110.042 162.261 111.44C167.144 112.849 172.207 113.539 177.289 113.487C184.514 113.487 189.864 111.768 193.38 108.368C196.896 104.969 198.634 100.004 198.634 93.4945V90.3265C195.678 93.6819 192.233 96.5732 188.415 98.9032C183.889 101.464 178.739 102.715 173.542 102.515C168.727 102.549 163.952 101.65 159.479 99.869C155.2 98.1716 151.314 95.6141 148.063 92.3548C144.717 88.9603 142.089 84.9266 140.336 80.4943C138.381 75.4862 137.416 70.1461 137.497 64.7705V64.4807C137.42 59.0865 138.384 53.7282 140.336 48.6989C142.096 44.2418 144.722 40.1778 148.063 36.7419C151.25 33.5045 155.062 30.9481 159.267 29.2277C163.557 27.4694 168.152 26.5766 172.788 26.6006C177.998 26.3914 183.174 27.5291 187.817 29.9038C191.698 32.0957 195.243 34.8345 198.344 38.0361V28.3777H226.894V90.1913C226.949 96.686 225.997 103.15 224.074 109.354C222.519 114.355 219.79 118.911 216.116 122.643C212.082 126.547 207.195 129.457 201.841 131.143C194.882 133.253 187.63 134.237 180.36 134.06ZM182.022 80.5522C184.199 80.6305 186.37 80.2726 188.406 79.4997C190.443 78.7267 192.305 77.5543 193.882 76.0514C195.404 74.6012 196.605 72.8479 197.406 70.9048C198.208 68.9616 198.594 66.8718 198.537 64.7705V64.4807C198.596 62.3905 198.212 60.3115 197.409 58.3805C196.607 56.4495 195.405 54.7102 193.882 53.277C190.566 50.4012 186.324 48.8179 181.935 48.8179C177.545 48.8179 173.303 50.4012 169.987 53.277C168.466 54.7272 167.265 56.4805 166.463 58.4237C165.661 60.3668 165.276 62.4566 165.332 64.558V64.8477C165.26 66.9512 165.638 69.0457 166.441 70.9912C167.244 72.9368 168.453 74.6883 169.987 76.1287C171.604 77.6212 173.499 78.7802 175.564 79.5392C177.629 80.2983 179.823 80.6425 182.022 80.5522Z" fill="white"/>
<path d="M282.256 111.668C276.257 111.741 270.297 110.7 264.678 108.597C259.575 106.669 254.901 103.754 250.924 100.02C247.01 96.279 243.935 91.7491 241.903 86.7302C239.706 81.2681 238.61 75.4255 238.678 69.5383V69.2293C238.639 63.5542 239.654 57.9214 241.672 52.6169C243.598 47.5993 246.485 43.0061 250.171 39.0952C253.969 35.0982 258.555 31.9324 263.638 29.7978C268.722 27.6632 274.193 26.6063 279.706 26.6938C285.983 26.5409 292.215 27.7743 297.961 30.306C302.894 32.5257 307.264 35.8267 310.748 39.9644C314.152 44.1347 316.705 48.9321 318.262 54.0849C319.9 59.6009 320.708 65.3299 320.658 71.0837V73.9426C320.658 74.947 320.658 75.8742 320.503 76.956H266.185C266.949 80.9519 269.148 84.5309 272.366 87.02C275.695 89.3045 279.669 90.4622 283.705 90.3232C286.938 90.3726 290.142 89.7132 293.093 88.3915C296.332 86.8209 299.263 84.6814 301.747 82.0749L317.528 95.1523C313.617 100.163 308.668 104.268 303.022 107.187C296.561 110.328 289.438 111.866 282.256 111.668ZM293.981 62.3718C293.702 58.3944 292.12 54.6198 289.481 51.6317C288.248 50.3171 286.749 49.2817 285.083 48.5953C283.417 47.9089 281.623 47.5874 279.822 47.6525C278.071 47.594 276.328 47.92 274.716 48.6075C273.104 49.2949 271.662 50.3272 270.492 51.6317C267.91 54.6875 266.243 58.4104 265.682 62.3718H293.981Z" fill="white"/>
<path d="M332.905 28.4147H361.609V39.8309C362.937 38.0853 364.376 36.427 365.917 34.8665C367.523 33.2501 369.319 31.8359 371.268 30.6554C373.315 29.4173 375.508 28.4375 377.797 27.7386C380.343 26.9573 382.995 26.5729 385.659 26.5989C394.429 26.5989 401.254 29.2582 406.135 34.5767C411.015 39.8952 413.462 47.2099 413.475 56.5205V109.719H384.77V65.6767C385.037 61.9996 383.921 58.3555 381.641 55.4581C380.618 54.3202 379.358 53.4207 377.949 52.8232C376.541 52.2257 375.018 51.9449 373.489 52.0004C371.904 51.9521 370.326 52.2346 368.856 52.8299C367.386 53.4252 366.056 54.3203 364.951 55.4581C362.543 58.2956 361.343 61.9644 361.609 65.6767V109.719H332.905V28.4147Z" fill="white"/>
<path d="M428.194 0H458.116V21.0359H428.194V0ZM428.832 28.4149H457.536V109.719H428.832V28.4149Z" fill="white"/>
<path d="M500.497 111.518C491.727 111.518 484.902 108.865 480.021 103.559C475.14 98.2534 472.694 90.9388 472.681 81.6153V28.417H501.385V72.4398C501.113 76.1176 502.23 79.7637 504.515 82.6584C505.56 83.8095 506.847 84.716 508.282 85.3136C509.718 85.9112 511.267 86.1852 512.821 86.1161C514.383 86.1595 515.936 85.8741 517.38 85.2784C518.824 84.6827 520.127 83.7901 521.204 82.6584C523.618 79.824 524.819 76.1529 524.546 72.4398V28.417H553.251V109.721H524.546V98.5174C521.848 102.039 518.585 105.087 514.888 107.538C510.605 110.293 505.586 111.681 500.497 111.518Z" fill="white"/>
<path d="M568.569 28.4141H597.274V39.5212C600.013 35.9969 603.316 32.949 607.048 30.5003C611.365 27.8031 616.39 26.4577 621.477 26.6369C626.378 26.5239 631.221 27.7031 635.521 30.056C639.503 32.3471 642.736 35.7418 644.831 39.8303C648.117 35.922 652.091 32.6486 656.557 30.1719C661.327 27.7085 666.643 26.4925 672.01 26.6369C680.715 26.6369 687.528 29.2125 692.447 34.3636C697.366 39.5148 699.826 46.8551 699.826 56.3847V109.718H671.237V65.5215C671.506 61.8894 670.442 58.2839 668.243 55.3802C667.236 54.2543 665.99 53.3668 664.597 52.7821C663.203 52.1974 661.698 51.9302 660.188 51.9998C658.635 51.9468 657.088 52.2203 655.647 52.8026C654.207 53.3849 652.904 54.263 651.824 55.3802C649.434 58.1946 648.253 61.8401 648.54 65.5215V109.718H619.816V65.5215C620.092 61.8917 619.035 58.2858 616.841 55.3802C615.831 54.2528 614.582 53.3645 613.185 52.7798C611.789 52.1951 610.279 51.9286 608.767 51.9998C607.228 51.9434 605.694 52.2157 604.269 52.7986C602.843 53.3815 601.558 54.2616 600.499 55.3802C598.154 58.2166 596.997 61.8512 597.274 65.5215V109.718H568.569V28.4141Z" fill="white"/>
<path d="M456.107 132.84C451.048 132.84 446.102 134.341 441.896 137.152C437.69 139.963 434.412 143.959 432.476 148.633C430.541 153.307 430.036 158.451 431.024 163.412C432.013 168.374 434.45 172.931 438.029 176.507C441.608 180.083 446.167 182.517 451.129 183.502C456.092 184.487 461.235 183.977 465.908 182.039C470.58 180.1 474.573 176.819 477.381 172.611C480.189 168.402 481.686 163.456 481.682 158.396C481.682 155.039 481.021 151.714 479.735 148.612C478.45 145.51 476.565 142.692 474.19 140.319C471.815 137.945 468.996 136.063 465.893 134.78C462.79 133.497 459.465 132.838 456.107 132.84ZM456.107 169.542C453.901 169.508 451.754 168.822 449.937 167.571C448.12 166.319 446.714 164.558 445.895 162.51C445.076 160.461 444.882 158.216 445.336 156.057C445.79 153.898 446.873 151.921 448.447 150.376C450.022 148.831 452.019 147.786 454.186 147.373C456.353 146.959 458.594 147.196 460.627 148.054C462.66 148.911 464.394 150.35 465.61 152.191C466.827 154.031 467.472 156.19 467.465 158.396C467.468 159.875 467.177 161.339 466.61 162.705C466.043 164.07 465.211 165.31 464.162 166.352C463.113 167.394 461.868 168.217 460.498 168.775C459.129 169.332 457.663 169.613 456.184 169.6L456.107 169.542Z" fill="white"/>
<path d="M427.267 164.483C425.957 166.511 424.027 168.062 421.763 168.902C419.499 169.743 417.024 169.828 414.708 169.145C412.392 168.463 410.359 167.049 408.913 165.115C407.467 163.182 406.686 160.832 406.686 158.417C406.686 156.003 407.467 153.653 408.913 151.719C410.359 149.785 412.392 148.372 414.708 147.689C417.024 147.006 419.499 147.092 421.763 147.932C424.027 148.773 425.957 150.323 427.267 152.352C427.298 152.41 427.348 152.457 427.407 152.485C427.467 152.513 427.535 152.521 427.599 152.508C427.664 152.495 427.723 152.462 427.768 152.413C427.812 152.364 427.84 152.302 427.846 152.236C428.93 147.338 431.266 142.805 434.627 139.081C430.921 135.86 426.367 133.773 421.508 133.068C416.648 132.364 411.689 133.072 407.221 135.108C402.753 137.144 398.965 140.422 396.309 144.552C393.653 148.681 392.24 153.488 392.24 158.398C392.24 163.308 393.653 168.114 396.309 172.244C398.965 176.373 402.753 179.652 407.221 181.688C411.689 183.724 416.648 184.432 421.508 183.728C426.367 183.023 430.921 180.936 434.627 177.715C431.285 174 428.969 169.48 427.904 164.599C427.912 164.557 427.911 164.514 427.902 164.472C427.893 164.431 427.876 164.391 427.852 164.356C427.828 164.321 427.797 164.291 427.761 164.268C427.725 164.245 427.685 164.23 427.644 164.222C427.602 164.214 427.559 164.215 427.517 164.224C427.476 164.233 427.436 164.25 427.401 164.274C427.366 164.299 427.336 164.329 427.313 164.365C427.29 164.401 427.275 164.441 427.267 164.483Z" fill="#00BC70"/>
<path d="M499.84 155.595L509.325 182.871H520.818L530.109 155.595H530.515L530.534 182.871H545.003V134.463H523.735L515.197 160.502H514.869L506.33 134.463H485.043V182.871H499.492L499.473 155.595H499.84Z" fill="white"/>
<path d="M548.364 182.871H589.991V169.001H564.261V164.327H579.985V152.64H564.261V147.733H589.991V134.463H548.364V182.871Z" fill="white"/>
<path d="M669.518 182.871H685.744V147.753H700V134.463H655.262V147.753H669.518V182.871ZM593.275 182.871H632.217V169.04H609.462V134.463H593.275V182.871Z" fill="white"/>
<path d="M651.863 134.463H635.675V182.871H651.863V134.463Z" fill="white"/>
<path d="M347.083 183.335C346.341 183.348 345.601 183.263 344.881 183.084C344.264 182.929 343.668 182.703 343.104 182.408C342.586 182.136 342.106 181.798 341.675 181.403C341.264 181.042 340.877 180.655 340.516 180.244V182.872H332.905V153.761H340.516V164.173C340.902 163.729 341.288 163.304 341.713 162.898C342.145 162.495 342.617 162.139 343.123 161.836C343.682 161.53 344.271 161.284 344.881 161.102C345.594 160.917 346.328 160.826 347.064 160.831C348.322 160.824 349.567 161.088 350.715 161.604C351.863 162.127 352.895 162.876 353.748 163.806C354.668 164.832 355.383 166.026 355.853 167.322C356.389 168.814 356.651 170.391 356.626 171.977C356.652 173.582 356.391 175.178 355.853 176.69C355.385 177.99 354.685 179.195 353.786 180.244C352.943 181.19 351.909 181.947 350.753 182.466C349.609 183.023 348.356 183.319 347.083 183.335ZM344.727 177.019C345.316 177.026 345.9 176.908 346.44 176.671C346.979 176.435 347.462 176.086 347.856 175.647C348.728 174.681 349.186 173.412 349.131 172.112C349.185 170.818 348.727 169.555 347.856 168.596C347.461 168.161 346.978 167.814 346.438 167.581C345.898 167.348 345.315 167.233 344.727 167.244C344.142 167.24 343.563 167.358 343.027 167.592C342.495 167.83 342.021 168.179 341.636 168.616C341.229 169.058 340.914 169.577 340.709 170.142C340.474 170.759 340.356 171.414 340.361 172.074C340.358 172.733 340.476 173.388 340.709 174.005C340.905 174.58 341.221 175.107 341.636 175.551C342.021 175.987 342.495 176.336 343.027 176.574C343.556 176.841 344.135 176.992 344.727 177.019Z" fill="white"/>
<path d="M366.226 189.303C364.964 189.315 363.708 189.139 362.498 188.781C361.387 188.446 360.313 187.999 359.291 187.448L361.648 182.175C362.215 182.521 362.817 182.806 363.444 183.025C363.928 183.205 364.436 183.31 364.951 183.334C365.289 183.337 365.624 183.271 365.936 183.141C366.253 182.984 366.52 182.743 366.709 182.445L358.268 161.197H366.187L370.495 174.197L374.571 161.197H382.298L374.397 182.252C373.994 183.358 373.503 184.431 372.929 185.459C372.487 186.275 371.905 187.007 371.21 187.622C370.581 188.189 369.836 188.611 369.027 188.858C368.122 189.151 367.177 189.301 366.226 189.303Z" fill="white"/>
</svg>
