<svg width="130" height="173" viewBox="0 0 130 173" fill="none" xmlns="http://www.w3.org/2000/svg">
<path fill-rule="evenodd" clip-rule="evenodd" d="M54.2401 12.2438L65.6655 0.818359L88.2927 23.4457L65.6655 46.0731L54.5312 34.9387C52.893 35.7577 51.0515 36.2302 49.1026 36.2603C49.0734 38.1545 48.6262 39.9472 47.8491 41.5504L61.9597 55.6611H69.846L95.1839 30.3235L100.841 35.9804L73.1597 63.6611H58.646L42.2589 47.274C40.6448 48.1042 38.8281 48.596 36.9026 48.6558C36.8773 50.3386 36.522 51.9413 35.8987 53.4023L55.9589 73.4627H76.0373L107.081 42.2073L129.348 64.474L65.9021 127.92L2.24512 64.2626L12.8306 53.6771C12.1071 52.0879 11.7041 50.322 11.7041 48.462C11.7041 41.6365 17.1312 36.0786 23.9055 35.8681C24.0081 29.0645 29.5031 23.5682 36.306 23.4634C36.412 16.596 42.0119 11.0616 48.9045 11.0616C50.8117 11.0616 52.6199 11.4853 54.2401 12.2438ZM18.2865 59.535L13.5588 64.2626L65.9021 116.606L118.034 64.4739L107.1 53.5403L79.3669 81.4627H52.6452L30.5755 59.3929C28.7287 60.4548 26.5873 61.0621 24.3041 61.0621C22.1247 61.0621 20.0746 60.5088 18.2865 59.535ZM60.1858 29.2797L65.6655 34.7594L76.9791 23.4457L65.6655 12.132L60.039 17.7586C60.9745 19.5195 61.5045 21.5287 61.5045 23.6617C61.5045 25.6804 61.0298 27.5883 60.1858 29.2797ZM44.3045 23.6617C44.3045 21.1211 46.364 19.0617 48.9045 19.0617C51.445 19.0617 53.5045 21.1212 53.5045 23.6617C53.5045 26.2022 51.445 28.2617 48.9045 28.2617C46.364 28.2617 44.3045 26.2022 44.3045 23.6617ZM31.9041 36.0619C31.9041 33.5214 33.9636 31.4619 36.5041 31.4619C39.0446 31.4619 41.1041 33.5214 41.1041 36.0619C41.1041 38.6025 39.0446 40.662 36.5041 40.662C33.9636 40.662 31.9041 38.6024 31.9041 36.0619ZM24.3041 43.862C21.7636 43.862 19.7041 45.9215 19.7041 48.462C19.7041 51.0025 21.7636 53.062 24.3041 53.062C26.8446 53.062 28.9041 51.0025 28.9041 48.462C28.9041 45.9215 26.8446 43.862 24.3041 43.862Z" fill="#003D85"/>
<path d="M60.1858 29.2797L65.6655 34.7594L76.9791 23.4457L65.6655 12.132L60.039 17.7586C60.9745 19.5195 61.5045 21.5287 61.5045 23.6617C61.5045 25.6804 61.0298 27.5883 60.1858 29.2797Z" fill="#FFD800"/>
<path d="M13.5588 64.2626L18.2865 59.535C20.0746 60.5088 22.1247 61.0621 24.3041 61.0621C26.5873 61.0621 28.7287 60.4548 30.5755 59.3929L52.6452 81.4627H79.3669L107.1 53.5403L118.034 64.4739L65.9021 116.606L13.5588 64.2626Z" fill="#FFD800"/>
<path d="M129.157 146.758C128.732 145.776 128.146 144.916 127.394 144.177C126.643 143.438 125.777 142.856 124.795 142.432C123.813 142.008 122.752 141.762 121.615 141.762C120.281 141.762 119.043 142.093 117.905 142.686C116.765 143.28 115.838 144.003 115.088 145.021C114.336 144.003 113.377 143.281 112.251 142.686C111.125 142.093 109.882 141.762 108.525 141.762C107.41 141.762 106.356 142.008 105.362 142.432C104.726 142.703 104.171 143.046 103.64 143.446V141.762H100.381V158.073H103.64V149.935C103.64 149.259 103.745 148.624 103.999 148.031C104.253 147.437 104.604 146.917 105.053 146.468C105.501 146.02 106.022 145.668 106.616 145.414C107.21 145.159 107.847 145.032 108.525 145.032C109.202 145.032 109.845 145.159 110.452 145.414C111.057 145.668 111.585 146.02 112.034 146.468C112.482 146.916 112.835 147.437 113.088 148.031C113.343 148.625 113.427 149.262 113.427 149.939L113.43 158.073H116.708V149.939C116.706 149.262 116.833 148.625 117.088 148.031C117.343 147.438 117.694 146.917 118.142 146.468C118.59 146.02 119.111 145.668 119.706 145.414C120.299 145.159 120.935 145.032 121.615 145.032C122.292 145.032 122.935 145.159 123.541 145.414C124.146 145.668 124.674 146.02 125.123 146.468C125.571 146.916 125.923 147.437 126.176 148.031C126.431 148.625 126.508 149.262 126.508 149.939V158.073H129.767V149.939C129.767 148.801 129.581 147.74 129.157 146.758Z" fill="#003D85"/>
<path d="M98.7499 141.762V149.939C98.7499 151.055 98.5369 152.109 98.1134 153.103C97.6884 154.097 97.1009 154.97 96.3499 155.72C95.5989 156.472 94.7329 157.06 93.7504 157.483C92.7689 157.908 91.7084 158.073 90.5699 158.073C89.4549 158.073 88.4008 157.908 87.4068 157.483C86.4128 157.059 85.5453 156.472 84.8073 155.72C84.0678 154.97 83.4858 154.097 83.0623 153.103C82.6373 152.109 82.4258 151.055 82.4258 149.939V141.762H85.7033V149.939C85.7033 150.619 85.7893 151.262 86.0433 151.866C86.2993 152.472 86.6498 153 87.0978 153.448C87.5468 153.896 88.0673 154.248 88.6613 154.502C89.2553 154.756 89.8919 154.814 90.5704 154.814C91.2479 154.814 91.8909 154.756 92.4974 154.502C93.1024 154.247 93.6304 153.896 94.0794 153.448C94.5269 153 94.8784 152.472 95.1329 151.866C95.3869 151.261 95.4784 150.619 95.4784 149.939V141.762H98.7499Z" fill="#003D85"/>
<path d="M0.669922 141.762V145.021H2.29644V158.073H5.57897V141.762H0.669922Z" fill="#003D85"/>
<path d="M3.2222 140.536C4.53086 140.536 5.59173 139.475 5.59173 138.166C5.59173 136.858 4.53086 135.797 3.2222 135.797C1.91355 135.797 0.852678 136.858 0.852678 138.166C0.852678 139.475 1.91355 140.536 3.2222 140.536Z" fill="#003D85"/>
<path d="M76.0447 141.762V145.021H77.6717V158.073H80.9538V141.762H76.0447Z" fill="#003D85"/>
<path d="M78.5974 140.536C79.906 140.536 80.9669 139.475 80.9669 138.166C80.9669 136.858 79.906 135.797 78.5974 135.797C77.2887 135.797 76.2278 136.858 76.2278 138.166C76.2278 139.475 77.2887 140.536 78.5974 140.536Z" fill="#003D85"/>
<path d="M75.2437 146.758C74.8192 145.776 74.2322 144.916 73.4812 144.177C72.7292 143.438 71.8632 142.856 70.8817 142.432C69.9001 142.008 68.7996 141.762 67.6611 141.762C66.5461 141.762 65.5311 142.008 64.5371 142.432C63.9016 142.703 63.3241 143.046 62.7926 143.447V141.794H59.499V158.073H62.7756L62.7761 149.935C62.7761 149.258 62.9201 148.623 63.1741 148.031C63.4291 147.437 63.7796 146.916 64.2281 146.467C64.6766 146.019 65.1981 145.667 65.7921 145.413C66.3861 145.158 66.9826 145.021 67.6611 145.021C68.3386 145.021 69.0216 145.158 69.6272 145.413C70.2327 145.668 70.7602 146.019 71.2092 146.467C71.6572 146.916 72.0092 147.436 72.2637 148.031C72.5177 148.625 72.6037 149.261 72.6037 149.939V158.073H75.8812V149.939C75.8807 148.8 75.6677 147.74 75.2437 146.758Z" fill="#003D85"/>
<path d="M22.9547 146.758C22.5292 145.776 21.9426 144.916 21.1916 144.177C20.4396 143.438 19.5736 142.856 18.5921 142.432C17.6106 142.008 16.5101 141.762 15.3716 141.762C14.2566 141.762 13.2416 142.008 12.248 142.432C11.612 142.703 11.0335 143.046 10.5035 143.447V141.794H7.20899V158.073H10.486V149.935C10.487 149.258 10.6305 148.623 10.8845 148.031C11.1395 147.437 11.49 146.916 11.9385 146.467C12.387 146.019 12.9076 145.667 13.5021 145.413C14.0956 145.158 14.6931 145.021 15.3716 145.021C16.0491 145.021 16.7316 145.158 17.3386 145.413C17.9431 145.668 18.4706 146.019 18.9191 146.467C19.3671 146.916 19.7196 147.436 19.9736 148.031C20.2281 148.625 20.3141 149.261 20.3141 149.939V158.073H23.5917V149.939C23.5907 148.8 23.3782 147.74 22.9547 146.758Z" fill="#003D85"/>
<path d="M57.8815 149.9C57.881 148.763 57.6685 147.703 57.246 146.723C56.8215 145.741 56.24 144.882 55.5015 144.143C54.762 143.404 53.903 142.822 52.921 142.398C51.94 141.974 50.8804 141.762 49.7409 141.762C48.6264 141.762 47.5729 141.975 46.5799 142.398C45.5859 142.823 44.7134 143.404 43.9629 144.143C43.2119 144.882 42.6244 145.741 42.2004 146.723C41.7763 147.704 41.5294 148.75 41.5294 149.888C41.5294 151.002 41.7758 152.072 42.2004 153.065C42.6249 154.058 43.2119 154.93 43.9629 155.681C44.7134 156.432 45.5859 157.02 46.5799 157.444C47.5729 157.868 48.6269 158.067 49.7409 158.067L54.6085 158.077V154.814H49.7459C47.6004 154.814 45.7889 153.47 45.1234 151.552L57.882 151.56V149.903L57.8815 149.9ZM45.0724 148.29C45.7384 146.374 47.5619 144.998 49.7054 144.998C51.852 144.998 53.6735 146.37 54.3385 148.29H45.0724Z" fill="#003D85"/>
<path d="M40.7013 141.795H37.5003V143.472C36.9628 143.061 36.3783 142.709 35.7368 142.432C34.7553 142.007 33.6948 141.795 32.5563 141.795C31.4412 141.795 30.3862 142.008 29.3932 142.432C28.3987 142.856 27.5262 143.438 26.7752 144.177C26.0232 144.916 25.4352 145.776 25.0122 146.758C24.5877 147.739 24.3762 148.8 24.3762 149.939C24.3762 151.054 24.5882 152.108 25.0122 153.102C25.4357 154.096 26.0232 154.969 26.7752 155.72C27.5262 156.471 28.3987 157.059 29.3932 157.482C30.3862 157.907 31.4412 158.073 32.5563 158.073H37.4238C37.0838 159.042 36.2823 159.882 35.4458 160.5C34.6103 161.118 33.6463 161.349 32.5563 161.349H30.9117V164.607H32.5563C33.6948 164.607 34.7553 164.451 35.7368 164.027C36.7188 163.602 37.5788 163.015 38.3183 162.264C39.0578 161.512 39.6393 160.646 40.0628 159.665C40.4873 158.683 40.6993 157.623 40.6993 156.483L40.7013 141.795ZM37.4233 154.814H32.5558C31.8763 154.814 31.2337 154.756 30.6287 154.502C30.0227 154.247 29.4952 153.896 29.0472 153.447C28.5982 152.999 28.2472 152.472 27.9937 151.867C27.7387 151.261 27.6112 150.618 27.6112 149.94C27.6112 149.262 27.7387 148.625 27.9937 148.031C28.2477 147.437 28.5982 146.916 29.0472 146.467C29.4952 146.019 30.0227 145.668 30.6287 145.414C31.2342 145.159 31.8763 145.031 32.5558 145.031C33.2338 145.031 33.8763 145.159 34.4828 145.414C35.0883 145.668 35.6153 146.02 36.0638 146.467C36.5118 146.916 36.8638 147.437 37.1183 148.031C37.3723 148.625 37.4233 149.262 37.4233 149.94V154.814Z" fill="#003D85"/>
<path d="M65.7834 166.607C66.0803 166.607 66.368 166.678 66.6467 166.818C66.9253 166.956 67.1375 167.136 67.2834 167.357C67.424 167.568 67.5178 167.814 67.5646 168.096C67.6063 168.288 67.6271 168.596 67.6271 169.018H64.5607C64.5737 169.442 64.674 169.783 64.8615 170.041C65.049 170.296 65.3394 170.424 65.7326 170.424C66.0998 170.424 66.3928 170.303 66.6115 170.061C66.7365 169.92 66.825 169.757 66.8771 169.572H67.5685C67.5503 169.726 67.4891 169.898 67.3849 170.088C67.2834 170.275 67.1688 170.429 67.0412 170.549C66.8277 170.757 66.5633 170.898 66.2482 170.971C66.079 171.012 65.8875 171.033 65.674 171.033C65.1532 171.033 64.7118 170.844 64.3498 170.467C63.9878 170.087 63.8068 169.555 63.8068 168.873C63.8068 168.201 63.9891 167.656 64.3537 167.236C64.7183 166.817 65.1948 166.607 65.7834 166.607ZM66.9045 168.459C66.8758 168.154 66.8094 167.911 66.7053 167.729C66.5125 167.39 66.1909 167.221 65.7404 167.221C65.4175 167.221 65.1467 167.338 64.9279 167.572C64.7092 167.804 64.5933 168.1 64.5803 168.459H66.9045ZM68.6143 166.701H69.2823V167.295C69.4802 167.05 69.6898 166.874 69.9112 166.768C70.1325 166.661 70.3786 166.607 70.6495 166.607C71.2432 166.607 71.6443 166.814 71.8526 167.229C71.9672 167.455 72.0245 167.779 72.0245 168.201V170.885H71.3096V168.248C71.3096 167.993 71.2719 167.787 71.1963 167.631C71.0713 167.37 70.8448 167.24 70.5167 167.24C70.35 167.24 70.2133 167.257 70.1065 167.291C69.9138 167.348 69.7445 167.463 69.5987 167.635C69.4815 167.773 69.4047 167.916 69.3682 168.064C69.3344 168.21 69.3174 168.42 69.3174 168.693V170.885H68.6143V166.701ZM74.664 166.627C74.9921 166.627 75.2786 166.708 75.5234 166.869C75.6562 166.96 75.7916 167.093 75.9296 167.268V166.74H76.578V170.545C76.578 171.076 76.4999 171.495 76.3437 171.803C76.052 172.37 75.5012 172.654 74.6913 172.654C74.2408 172.654 73.8619 172.553 73.5546 172.35C73.2473 172.149 73.0755 171.834 73.039 171.404H73.7538C73.7877 171.592 73.8554 171.736 73.957 171.838C74.1158 171.994 74.3658 172.072 74.707 172.072C75.246 172.072 75.5989 171.882 75.7655 171.502C75.8645 171.278 75.9101 170.878 75.9023 170.303C75.7616 170.516 75.5924 170.675 75.3945 170.779C75.1965 170.883 74.9348 170.936 74.6093 170.936C74.1562 170.936 73.759 170.775 73.4179 170.455C73.0794 170.132 72.9101 169.6 72.9101 168.857C72.9101 168.157 73.0807 167.61 73.4218 167.217C73.7656 166.824 74.1796 166.627 74.664 166.627ZM75.9296 168.775C75.9296 168.257 75.8228 167.873 75.6093 167.623C75.3958 167.373 75.1236 167.248 74.7929 167.248C74.2981 167.248 73.9596 167.48 73.7773 167.943C73.6809 168.191 73.6327 168.515 73.6327 168.916C73.6327 169.387 73.7278 169.747 73.9179 169.994C74.1106 170.239 74.3684 170.361 74.6913 170.361C75.1965 170.361 75.552 170.133 75.7577 169.678C75.8723 169.42 75.9296 169.119 75.9296 168.775ZM77.7605 166.721H78.4754V170.885H77.7605V166.721ZM77.7605 165.146H78.4754V165.943H77.7605V165.146ZM79.6618 166.701H80.3298V167.295C80.5277 167.05 80.7373 166.874 80.9587 166.768C81.18 166.661 81.4261 166.607 81.6969 166.607C82.2907 166.607 82.6917 166.814 82.9001 167.229C83.0146 167.455 83.0719 167.779 83.0719 168.201V170.885H82.3571V168.248C82.3571 167.993 82.3193 167.787 82.2438 167.631C82.1188 167.37 81.8923 167.24 81.5641 167.24C81.3975 167.24 81.2607 167.257 81.154 167.291C80.9613 167.348 80.792 167.463 80.6462 167.635C80.529 167.773 80.4522 167.916 80.4157 168.064C80.3818 168.21 80.3649 168.42 80.3649 168.693V170.885H79.6618V166.701ZM85.9771 166.607C86.274 166.607 86.5617 166.678 86.8404 166.818C87.119 166.956 87.3313 167.136 87.4771 167.357C87.6177 167.568 87.7115 167.814 87.7583 168.096C87.8 168.288 87.8208 168.596 87.8208 169.018H84.7544C84.7675 169.442 84.8677 169.783 85.0552 170.041C85.2427 170.296 85.5331 170.424 85.9263 170.424C86.2935 170.424 86.5865 170.303 86.8052 170.061C86.9302 169.92 87.0188 169.757 87.0708 169.572H87.7622C87.744 169.726 87.6828 169.898 87.5786 170.088C87.4771 170.275 87.3625 170.429 87.2349 170.549C87.0214 170.757 86.757 170.898 86.4419 170.971C86.2727 171.012 86.0813 171.033 85.8677 171.033C85.3469 171.033 84.9055 170.844 84.5435 170.467C84.1815 170.087 84.0005 169.555 84.0005 168.873C84.0005 168.201 84.1828 167.656 84.5474 167.236C84.912 166.817 85.3885 166.607 85.9771 166.607ZM87.0982 168.459C87.0695 168.154 87.0031 167.911 86.899 167.729C86.7063 167.39 86.3846 167.221 85.9341 167.221C85.6112 167.221 85.3404 167.338 85.1216 167.572C84.9029 167.804 84.787 168.1 84.774 168.459H87.0982ZM90.5502 166.607C90.8471 166.607 91.1348 166.678 91.4135 166.818C91.6921 166.956 91.9044 167.136 92.0502 167.357C92.1908 167.568 92.2846 167.814 92.3315 168.096C92.3731 168.288 92.394 168.596 92.394 169.018H89.3276C89.3406 169.442 89.4408 169.783 89.6283 170.041C89.8158 170.296 90.1062 170.424 90.4994 170.424C90.8666 170.424 91.1596 170.303 91.3783 170.061C91.5033 169.92 91.5919 169.757 91.644 169.572H92.3354C92.3171 169.726 92.2559 169.898 92.1518 170.088C92.0502 170.275 91.9356 170.429 91.808 170.549C91.5945 170.757 91.3302 170.898 91.015 170.971C90.8458 171.012 90.6544 171.033 90.4408 171.033C89.92 171.033 89.4786 170.844 89.1166 170.467C88.7546 170.087 88.5736 169.555 88.5736 168.873C88.5736 168.201 88.7559 167.656 89.1205 167.236C89.4851 166.817 89.9617 166.607 90.5502 166.607ZM91.6713 168.459C91.6427 168.154 91.5762 167.911 91.4721 167.729C91.2794 167.39 90.9578 167.221 90.5072 167.221C90.1843 167.221 89.9135 167.338 89.6947 167.572C89.476 167.804 89.3601 168.1 89.3471 168.459H91.6713ZM93.4007 166.701H94.0686V167.424C94.1233 167.283 94.2574 167.113 94.471 166.912C94.6845 166.709 94.9306 166.607 95.2093 166.607C95.2223 166.607 95.2444 166.609 95.2757 166.611C95.3069 166.614 95.3603 166.619 95.4358 166.627V167.369C95.3942 167.361 95.3551 167.356 95.3186 167.354C95.2848 167.351 95.247 167.35 95.2054 167.35C94.8512 167.35 94.5791 167.464 94.3889 167.693C94.1988 167.92 94.1038 168.182 94.1038 168.479V170.885H93.4007V166.701ZM96.1652 166.721H96.88V170.885H96.1652V166.721ZM96.1652 165.146H96.88V165.943H96.1652V165.146ZM98.0664 166.701H98.7344V167.295C98.9323 167.05 99.142 166.874 99.3633 166.768C99.5847 166.661 99.8308 166.607 100.102 166.607C100.695 166.607 101.096 166.814 101.305 167.229C101.419 167.455 101.477 167.779 101.477 168.201V170.885H100.762V168.248C100.762 167.993 100.724 167.787 100.648 167.631C100.523 167.37 100.297 167.24 99.9688 167.24C99.8021 167.24 99.6654 167.257 99.5586 167.291C99.3659 167.348 99.1966 167.463 99.0508 167.635C98.9336 167.773 98.8568 167.916 98.8203 168.064C98.7865 168.21 98.7696 168.42 98.7696 168.693V170.885H98.0664V166.701ZM104.116 166.627C104.444 166.627 104.731 166.708 104.975 166.869C105.108 166.96 105.244 167.093 105.382 167.268V166.74H106.03V170.545C106.03 171.076 105.952 171.495 105.796 171.803C105.504 172.37 104.953 172.654 104.143 172.654C103.693 172.654 103.314 172.553 103.007 172.35C102.699 172.149 102.528 171.834 102.491 171.404H103.206C103.24 171.592 103.308 171.736 103.409 171.838C103.568 171.994 103.818 172.072 104.159 172.072C104.698 172.072 105.051 171.882 105.218 171.502C105.317 171.278 105.362 170.878 105.354 170.303C105.214 170.516 105.044 170.675 104.847 170.779C104.649 170.883 104.387 170.936 104.061 170.936C103.608 170.936 103.211 170.775 102.87 170.455C102.531 170.132 102.362 169.6 102.362 168.857C102.362 168.157 102.533 167.61 102.874 167.217C103.218 166.824 103.632 166.627 104.116 166.627ZM105.382 168.775C105.382 168.257 105.275 167.873 105.061 167.623C104.848 167.373 104.576 167.248 104.245 167.248C103.75 167.248 103.412 167.48 103.229 167.943C103.133 168.191 103.085 168.515 103.085 168.916C103.085 169.387 103.18 169.747 103.37 169.994C103.563 170.239 103.821 170.361 104.143 170.361C104.649 170.361 105.004 170.133 105.21 169.678C105.324 169.42 105.382 169.119 105.382 168.775ZM111.036 166.627C111.364 166.627 111.65 166.708 111.895 166.869C112.028 166.96 112.163 167.093 112.301 167.268V166.74H112.95V170.545C112.95 171.076 112.872 171.495 112.715 171.803C112.424 172.37 111.873 172.654 111.063 172.654C110.613 172.654 110.234 172.553 109.926 172.35C109.619 172.149 109.447 171.834 109.411 171.404H110.126C110.159 171.592 110.227 171.736 110.329 171.838C110.488 171.994 110.738 172.072 111.079 172.072C111.618 172.072 111.971 171.882 112.137 171.502C112.236 171.278 112.282 170.878 112.274 170.303C112.133 170.516 111.964 170.675 111.766 170.779C111.568 170.883 111.307 170.936 110.981 170.936C110.528 170.936 110.131 170.775 109.79 170.455C109.451 170.132 109.282 169.6 109.282 168.857C109.282 168.157 109.452 167.61 109.794 167.217C110.137 166.824 110.551 166.627 111.036 166.627ZM112.301 168.775C112.301 168.257 112.195 167.873 111.981 167.623C111.768 167.373 111.495 167.248 111.165 167.248C110.67 167.248 110.331 167.48 110.149 167.943C110.053 168.191 110.005 168.515 110.005 168.916C110.005 169.387 110.1 169.747 110.29 169.994C110.482 170.239 110.74 170.361 111.063 170.361C111.568 170.361 111.924 170.133 112.13 169.678C112.244 169.42 112.301 169.119 112.301 168.775ZM114.152 166.701H114.82V167.424C114.875 167.283 115.009 167.113 115.222 166.912C115.436 166.709 115.682 166.607 115.96 166.607C115.973 166.607 115.996 166.609 116.027 166.611C116.058 166.614 116.112 166.619 116.187 166.627V167.369C116.145 167.361 116.106 167.356 116.07 167.354C116.036 167.351 115.998 167.35 115.957 167.35C115.602 167.35 115.33 167.464 115.14 167.693C114.95 167.92 114.855 168.182 114.855 168.479V170.885H114.152V166.701ZM118.577 170.432C119.043 170.432 119.362 170.256 119.534 169.904C119.708 169.55 119.795 169.157 119.795 168.725C119.795 168.334 119.733 168.016 119.608 167.771C119.41 167.386 119.069 167.193 118.584 167.193C118.155 167.193 117.842 167.357 117.647 167.686C117.452 168.014 117.354 168.41 117.354 168.873C117.354 169.318 117.452 169.689 117.647 169.986C117.842 170.283 118.152 170.432 118.577 170.432ZM118.604 166.58C119.143 166.58 119.599 166.76 119.971 167.119C120.343 167.479 120.53 168.007 120.53 168.705C120.53 169.38 120.366 169.937 120.037 170.377C119.709 170.817 119.2 171.037 118.51 171.037C117.935 171.037 117.478 170.843 117.139 170.455C116.801 170.064 116.631 169.541 116.631 168.885C116.631 168.182 116.81 167.622 117.166 167.205C117.523 166.788 118.002 166.58 118.604 166.58ZM122.193 166.701V169.479C122.193 169.692 122.226 169.867 122.294 170.002C122.419 170.252 122.652 170.377 122.993 170.377C123.483 170.377 123.816 170.158 123.993 169.721C124.09 169.486 124.138 169.165 124.138 168.756V166.701H124.841V170.885H124.177L124.185 170.268C124.094 170.426 123.98 170.561 123.845 170.67C123.577 170.889 123.251 170.998 122.868 170.998C122.272 170.998 121.866 170.799 121.65 170.4C121.532 170.187 121.474 169.902 121.474 169.545V166.701H122.193ZM127.828 170.412C128.156 170.412 128.429 170.275 128.645 170.002C128.863 169.726 128.973 169.314 128.973 168.768C128.973 168.434 128.925 168.148 128.828 167.908C128.646 167.447 128.313 167.217 127.828 167.217C127.341 167.217 127.008 167.46 126.828 167.947C126.732 168.208 126.684 168.538 126.684 168.939C126.684 169.262 126.732 169.537 126.828 169.764C127.011 170.196 127.344 170.412 127.828 170.412ZM126.008 166.721H126.692V167.275C126.832 167.085 126.986 166.938 127.152 166.834C127.389 166.678 127.668 166.6 127.988 166.6C128.462 166.6 128.865 166.782 129.195 167.146C129.526 167.508 129.692 168.027 129.692 168.701C129.692 169.613 129.453 170.264 128.977 170.654C128.675 170.902 128.323 171.025 127.922 171.025C127.607 171.025 127.343 170.956 127.129 170.818C127.004 170.74 126.865 170.606 126.711 170.416V172.553H126.008V166.721Z" fill="#003D85"/>
</svg>
